<svg width="20" height="20" viewBox="0 0 20 20" fill="none" xmlns="http://www.w3.org/2000/svg">
<g clip-path="url(#clip0_132_177)">
<path d="M15.5629 4.86076L17.6394 6.93627L15.5629 4.86076ZM16.8982 3.03231L11.2834 8.64707C10.9933 8.93678 10.7955 9.30589 10.7148 9.70787L10.1962 12.304L12.7923 11.7844C13.1942 11.704 13.5629 11.5069 13.8531 11.2167L19.4678 5.60195C19.6366 5.43322 19.7704 5.23292 19.8617 5.01247C19.953 4.79202 20 4.55574 20 4.31713C20 4.07852 19.953 3.84224 19.8617 3.62179C19.7704 3.40134 19.6366 3.20104 19.4678 3.03231C19.2991 2.86359 19.0988 2.72975 18.8784 2.63843C18.6579 2.54712 18.4216 2.50012 18.183 2.50012C17.9444 2.50012 17.7081 2.54712 17.4877 2.63843C17.2672 2.72975 17.0669 2.86359 16.8982 3.03231V3.03231Z" stroke="#6E6893" stroke-width="2" stroke-linecap="round" stroke-linejoin="round"/>
<path d="M18.0394 14.2648V17.206C18.0394 17.726 17.8328 18.2248 17.4651 18.5925C17.0973 18.9602 16.5986 19.1668 16.0786 19.1668H5.29415C4.77411 19.1668 4.27537 18.9602 3.90765 18.5925C3.53993 18.2248 3.33334 17.726 3.33334 17.206V6.42156C3.33334 5.90152 3.53993 5.40278 3.90765 5.03506C4.27537 4.66734 4.77411 4.46075 5.29415 4.46075H8.23535" stroke="#6E6893" stroke-width="2" stroke-linecap="round" stroke-linejoin="round"/>
</g>
<defs>
<clipPath id="clip0_132_177">
<rect width="20" height="20" fill="white"/>
</clipPath>
</defs>
</svg>
