<svg width="48" height="48" viewBox="0 0 48 48" fill="none" xmlns="http://www.w3.org/2000/svg">
<path d="M12 40V10H32C34.2 10 36 11.8 36 14V40C36 42.2 34.2 44 32 44H16C13.8 44 12 42.2 12 40Z" fill="#546E7A"/>
<path d="M32 13H16C15.4 13 15 13.4 15 14V22C15 22.6 15.4 23 16 23H32C32.6 23 33 22.6 33 22V14C33 13.4 32.6 13 32 13Z" fill="#4FC3F7"/>
<path d="M19 30H17C16.4 30 16 29.6 16 29V28C16 27.4 16.4 27 17 27H19C19.6 27 20 27.4 20 28V29C20 29.6 19.6 30 19 30Z" fill="#B3E5FC"/>
<path d="M25 30H23C22.4 30 22 29.6 22 29V28C22 27.4 22.4 27 23 27H25C25.6 27 26 27.4 26 28V29C26 29.6 25.6 30 25 30Z" fill="#B3E5FC"/>
<path d="M31 30H29C28.4 30 28 29.6 28 29V28C28 27.4 28.4 27 29 27H31C31.6 27 32 27.4 32 28V29C32 29.6 31.6 30 31 30Z" fill="#B3E5FC"/>
<path d="M19 35H17C16.4 35 16 34.6 16 34V33C16 32.4 16.4 32 17 32H19C19.6 32 20 32.4 20 33V34C20 34.6 19.6 35 19 35Z" fill="#B3E5FC"/>
<path d="M25 35H23C22.4 35 22 34.6 22 34V33C22 32.4 22.4 32 23 32H25C25.6 32 26 32.4 26 33V34C26 34.6 25.6 35 25 35Z" fill="#B3E5FC"/>
<path d="M31 35H29C28.4 35 28 34.6 28 34V33C28 32.4 28.4 32 29 32H31C31.6 32 32 32.4 32 33V34C32 34.6 31.6 35 31 35Z" fill="#B3E5FC"/>
<path d="M19 40H17C16.4 40 16 39.6 16 39V38C16 37.4 16.4 37 17 37H19C19.6 37 20 37.4 20 38V39C20 39.6 19.6 40 19 40Z" fill="#B3E5FC"/>
<path d="M25 40H23C22.4 40 22 39.6 22 39V38C22 37.4 22.4 37 23 37H25C25.6 37 26 37.4 26 38V39C26 39.6 25.6 40 25 40Z" fill="#B3E5FC"/>
<path d="M31 40H29C28.4 40 28 39.6 28 39V38C28 37.4 28.4 37 29 37H31C31.6 37 32 37.4 32 38V39C32 39.6 31.6 40 31 40Z" fill="#B3E5FC"/>
<path d="M16 10H12V4C12 2.9 12.9 2 14 2C15.1 2 16 2.9 16 4V10Z" fill="#37474F"/>
</svg>
